<svg width="49" height="63" viewBox="0 0 49 63" fill="#489DBA" xmlns="http://www.w3.org/2000/svg">
    <g clip-path="url(#clip0_424_78920)">
        <path d="M1.29443 0.658691H29.0608C33.8568 0.660491 38.4557 2.56696 41.8464 5.95889C45.237 9.35082 47.1418 13.9505 47.1418 18.7465V18.7465H19.3755C14.5794 18.7447 9.98049 16.8382 6.58983 13.4463C3.19918 10.0544 1.29443 5.4547 1.29443 0.658691V0.658691Z" fill="#FAA706"/>
        <path d="M1.29443 22.1819H29.0608C33.8556 22.1837 38.4535 24.0892 41.844 27.4797C45.2344 30.8701 47.14 35.4681 47.1418 40.2629V40.2629H19.3755C14.5806 40.2611 9.98269 38.3556 6.59223 34.9651C3.20177 31.5747 1.29623 26.9767 1.29443 22.1819V22.1819Z" fill="#489DBA"/>
        <path d="M21.3912 43.7026H1.29443C1.29443 48.4986 3.19917 53.0983 6.58983 56.4902C9.98048 59.8822 14.5794 61.7886 19.3754 61.7904H34.3887C30.6041 60.5113 27.3153 58.0788 24.9841 54.8346C22.6529 51.5904 21.3965 47.6975 21.3912 43.7026V43.7026Z" fill="#C8E1EA"/>
    </g>
    <defs>
        <clipPath id="clip0_424_78920">
            <rect width="48.2727" height="61.6818" fill="#489DBA" transform="translate(0 0.658936)"/>
        </clipPath>
    </defs>
</svg>
